STARTFONT 2.1
COMMENT Exported by Fony v1.4.7
FONT led7seg2
SIZE 8 96 96
FONTBOUNDINGBOX 8 7 0 0
STARTPROPERTIES 6
COPYRIGHT "Created with Fony 1.4.7"
RESOLUTION_X 96
RESOLUTION_Y 96
FONT_ASCENT 8
FONT_DESCENT 0
DEFAULT_CHAR 0
ENDPROPERTIES
CHARS 43
STARTCHAR 048
ENCODING 48
SWIDTH 576 0
DWIDTH 8 0
BBX 0 0 0 0
BITMAP
ENDCHAR
STARTCHAR 049
ENCODING 49
SWIDTH 576 0
DWIDTH 8 0
BBX 3 3 5 0
BITMAP
E0
E0
E0
ENDCHAR
STARTCHAR 050
ENCODING 50
SWIDTH 576 0
DWIDTH 8 0
BBX 3 3 0 0
BITMAP
E0
E0
E0
ENDCHAR
STARTCHAR 051
ENCODING 51
SWIDTH 576 0
DWIDTH 8 0
BBX 3 3 5 5
BITMAP
E0
E0
E0
ENDCHAR
STARTCHAR 052
ENCODING 52
SWIDTH 576 0
DWIDTH 8 0
BBX 3 3 0 5
BITMAP
E0
E0
E0
ENDCHAR
STARTCHAR 053
ENCODING 53
SWIDTH 576 0
DWIDTH 8 0
BBX 2 2 6 0
BITMAP
C0
C0
ENDCHAR
STARTCHAR 054
ENCODING 54
SWIDTH 576 0
DWIDTH 8 0
BBX 2 2 0 0
BITMAP
C0
C0
ENDCHAR
STARTCHAR 055
ENCODING 55
SWIDTH 576 0
DWIDTH 8 0
BBX 2 2 6 6
BITMAP
C0
C0
ENDCHAR
STARTCHAR 056
ENCODING 56
SWIDTH 576 0
DWIDTH 8 0
BBX 2 2 0 6
BITMAP
C0
C0
ENDCHAR
STARTCHAR 057
ENCODING 57
SWIDTH 576 0
DWIDTH 8 0
BBX 0 0 0 0
BITMAP
ENDCHAR
STARTCHAR 058
ENCODING 58
SWIDTH 576 0
DWIDTH 8 0
BBX 0 0 0 0
BITMAP
ENDCHAR
STARTCHAR 059
ENCODING 59
SWIDTH 576 0
DWIDTH 8 0
BBX 0 0 0 0
BITMAP
ENDCHAR
STARTCHAR 060
ENCODING 60
SWIDTH 576 0
DWIDTH 8 0
BBX 0 0 0 0
BITMAP
ENDCHAR
STARTCHAR 061
ENCODING 61
SWIDTH 576 0
DWIDTH 8 0
BBX 0 0 0 0
BITMAP
ENDCHAR
STARTCHAR 062
ENCODING 62
SWIDTH 576 0
DWIDTH 8 0
BBX 0 0 0 0
BITMAP
ENDCHAR
STARTCHAR 063
ENCODING 63
SWIDTH 576 0
DWIDTH 8 0
BBX 0 0 0 0
BITMAP
ENDCHAR
STARTCHAR 064
ENCODING 64
SWIDTH 576 0
DWIDTH 8 0
BBX 0 0 0 0
BITMAP
ENDCHAR
STARTCHAR 065
ENCODING 65
SWIDTH 576 0
DWIDTH 8 0
BBX 2 2 6 0
BITMAP
40
C0
ENDCHAR
STARTCHAR 066
ENCODING 66
SWIDTH 576 0
DWIDTH 8 0
BBX 8 3 0 0
BITMAP
FF
FF
FF
ENDCHAR
STARTCHAR 067
ENCODING 67
SWIDTH 576 0
DWIDTH 8 0
BBX 4 3 0 0
BITMAP
C0
E0
F0
ENDCHAR
STARTCHAR 068
ENCODING 68
SWIDTH 576 0
DWIDTH 8 0
BBX 2 2 6 6
BITMAP
C0
40
ENDCHAR
STARTCHAR 069
ENCODING 69
SWIDTH 576 0
DWIDTH 8 0
BBX 8 3 0 5
BITMAP
FF
FF
FF
ENDCHAR
STARTCHAR 070
ENCODING 70
SWIDTH 576 0
DWIDTH 8 0
BBX 4 3 0 5
BITMAP
F0
E0
C0
ENDCHAR
STARTCHAR 071
ENCODING 71
SWIDTH 576 0
DWIDTH 8 0
BBX 6 7 2 0
BITMAP
30
78
FC
FC
FC
FC
FC
ENDCHAR
STARTCHAR 072
ENCODING 72
SWIDTH 576 0
DWIDTH 8 0
BBX 6 7 2 1
BITMAP
FC
FC
FC
FC
FC
78
30
ENDCHAR
STARTCHAR 073
ENCODING 73
SWIDTH 576 0
DWIDTH 8 0
BBX 6 8 2 0
BITMAP
0C
34
78
FC
FC
FC
FC
FC
ENDCHAR
STARTCHAR 074
ENCODING 74
SWIDTH 576 0
DWIDTH 8 0
BBX 8 8 0 0
BITMAP
F0
EC
DE
3F
3F
3F
3F
3F
ENDCHAR
STARTCHAR 075
ENCODING 75
SWIDTH 576 0
DWIDTH 8 0
BBX 6 8 2 0
BITMAP
FC
FC
FC
FC
FC
78
34
0C
ENDCHAR
STARTCHAR 076
ENCODING 76
SWIDTH 576 0
DWIDTH 8 0
BBX 8 8 0 0
BITMAP
3F
3F
3F
3F
3F
DE
EC
F0
ENDCHAR
STARTCHAR 077
ENCODING 77
SWIDTH 576 0
DWIDTH 8 0
BBX 4 3 4 0
BITMAP
30
70
F0
ENDCHAR
STARTCHAR 078
ENCODING 78
SWIDTH 576 0
DWIDTH 8 0
BBX 8 3 0 0
BITMAP
FF
FF
FF
ENDCHAR
STARTCHAR 079
ENCODING 79
SWIDTH 576 0
DWIDTH 8 0
BBX 2 2 0 0
BITMAP
80
C0
ENDCHAR
STARTCHAR 080
ENCODING 80
SWIDTH 576 0
DWIDTH 8 0
BBX 4 3 4 5
BITMAP
F0
70
30
ENDCHAR
STARTCHAR 081
ENCODING 81
SWIDTH 576 0
DWIDTH 8 0
BBX 8 3 0 5
BITMAP
FF
FF
FF
ENDCHAR
STARTCHAR 082
ENCODING 82
SWIDTH 576 0
DWIDTH 8 0
BBX 2 2 0 6
BITMAP
C0
80
ENDCHAR
STARTCHAR 083
ENCODING 83
SWIDTH 576 0
DWIDTH 8 0
BBX 6 7 0 0
BITMAP
30
78
FC
FC
FC
FC
FC
ENDCHAR
STARTCHAR 084
ENCODING 84
SWIDTH 576 0
DWIDTH 8 0
BBX 6 7 0 1
BITMAP
FC
FC
FC
FC
FC
78
30
ENDCHAR
STARTCHAR 085
ENCODING 85
SWIDTH 576 0
DWIDTH 8 0
BBX 8 8 0 0
BITMAP
0F
37
7B
FC
FC
FC
FC
FC
ENDCHAR
STARTCHAR 086
ENCODING 86
SWIDTH 576 0
DWIDTH 8 0
BBX 6 8 0 0
BITMAP
C0
B0
78
FC
FC
FC
FC
FC
ENDCHAR
STARTCHAR 087
ENCODING 87
SWIDTH 576 0
DWIDTH 8 0
BBX 8 8 0 0
BITMAP
FC
FC
FC
FC
FC
7B
37
0F
ENDCHAR
STARTCHAR 088
ENCODING 88
SWIDTH 576 0
DWIDTH 8 0
BBX 6 8 0 0
BITMAP
FC
FC
FC
FC
FC
78
B0
C0
ENDCHAR
STARTCHAR 089
ENCODING 89
SWIDTH 576 0
DWIDTH 8 0
BBX 0 0 0 0
BITMAP
ENDCHAR
STARTCHAR 090
ENCODING 90
SWIDTH 576 0
DWIDTH 8 0
BBX 0 0 0 0
BITMAP
ENDCHAR
ENDFONT
